<?xml version="1.0" standalone="no"?>
<!DOCTYPE svg PUBLIC "-//W3C//DTD SVG 20010904//EN"
 "http://www.w3.org/TR/2001/REC-SVG-20010904/DTD/svg10.dtd">
<svg version="1.0" xmlns="http://www.w3.org/2000/svg"
 width="479.000000pt" height="413.000000pt" viewBox="0 0 479.000000 413.000000"
 preserveAspectRatio="xMidYMid meet">

<g transform="translate(0.000000,413.000000) scale(0.100000,-0.100000)"
fill="#000000" stroke="none">
<path d="M90 4092 c-20 -10 -42 -32 -52 -52 -17 -33 -18 -120 -18 -1385 0
-1290 1 -1352 18 -1385 39 -74 -6 -70 880 -70 751 0 793 -1 788 -17 -3 -10
-24 -115 -47 -233 l-42 -215 -264 -266 c-256 -257 -265 -268 -270 -311 -6 -55
15 -101 60 -128 31 -19 60 -20 1255 -20 1350 0 1261 -4 1302 63 22 35 26 96 9
130 -6 12 -128 139 -270 282 l-259 260 -45 224 c-25 124 -45 226 -45 228 0 2
357 3 793 3 886 0 843 -3 879 70 17 33 18 120 18 1385 0 1265 -1 1352 -18
1385 -10 20 -32 42 -52 52 -33 17 -164 18 -2310 18 -2146 0 -2277 -1 -2310
-18z m3363 -252 l1057 0 0 -1185 0 -1185 -2110 0 -2110 0 0 1184 c0 781 3
1185 10 1188 6 2 479 2 1053 1 573 -2 1518 -3 2100 -3z m-633 -2645 c0 -7 71
-348 76 -367 5 -17 -23 -18 -496 -18 -473 0 -501 1 -496 18 2 9 19 89 36 177
17 88 34 168 36 178 5 16 34 17 425 17 230 0 419 -2 419 -5z m315 -785 l130
-130 -865 0 -865 0 130 130 130 130 605 0 605 0 130 -130z"/>
<path d="M650 2635 l0 -285 35 0 35 0 0 130 c0 107 3 132 15 136 34 13 65 -10
158 -120 127 -150 122 -146 168 -146 l40 0 -127 151 -126 150 19 22 c52 59
179 205 197 225 l19 22 -40 0 c-39 0 -44 -4 -134 -107 -126 -144 -125 -143
-159 -143 l-30 0 0 125 0 125 -35 0 -35 0 0 -285z"/>
<path d="M1274 2846 c-69 -63 -79 -75 -69 -90 18 -24 31 -20 84 24 26 22 50
40 54 40 4 0 6 -93 5 -207 l-3 -208 -57 -3 c-54 -3 -58 -5 -58 -27 l0 -25 145
0 145 0 0 24 c0 23 -4 25 -52 28 l-53 3 -3 258 -2 257 -28 0 c-19 -1 -50 -22
-108 -74z"/>
<path d="M1715 2904 c-44 -23 -60 -40 -80 -84 -20 -45 -19 -48 14 -52 18 -2
29 6 46 36 26 46 57 65 108 66 55 0 97 -43 97 -100 0 -65 -34 -116 -166 -251
-82 -83 -124 -133 -124 -147 0 -22 2 -22 186 -22 l185 0 -3 33 -3 32 -131 0
-131 0 109 115 c127 134 153 179 146 251 -6 59 -31 97 -79 121 -43 22 -134 23
-174 2z"/>
<path d="M2090 2635 l0 -285 35 0 35 0 2 217 3 216 165 -214 c136 -176 170
-215 193 -217 l27 -3 0 285 0 286 -30 0 -30 0 0 -215 c0 -118 -3 -215 -7 -215
-5 0 -82 97 -173 215 -145 189 -168 215 -192 215 l-28 0 0 -285z"/>
<path d="M2690 2635 l0 -285 170 0 170 0 0 30 0 30 -135 0 -135 0 0 100 0 100
110 0 110 0 0 25 c0 24 -1 24 -107 27 l-108 3 -3 98 -3 97 136 0 135 0 0 30 0
30 -170 0 -170 0 0 -285z"/>
<path d="M3095 2873 c8 -26 48 -154 88 -283 l73 -235 33 0 33 0 74 215 c40
118 75 220 77 225 2 6 37 -91 79 -215 l75 -225 34 -3 34 -3 84 273 c46 150 86
279 88 286 6 15 -63 17 -72 2 -9 -15 -125 -408 -125 -425 0 -45 -22 7 -85 201
-38 118 -75 220 -82 225 -6 6 -22 9 -34 7 -20 -3 -32 -30 -98 -230 l-75 -227
-66 227 -67 227 -41 3 -41 3 14 -48z"/>
<path d="M4014 2906 c-60 -26 -99 -104 -85 -168 17 -72 38 -91 150 -129 30
-11 65 -26 78 -35 72 -46 34 -154 -59 -169 -34 -6 -50 -2 -101 24 -33 17 -63
31 -67 31 -4 0 -12 -11 -18 -25 -11 -23 -9 -27 21 -45 52 -32 95 -42 162 -38
107 7 165 69 165 179 0 44 -4 55 -32 83 -18 18 -60 42 -93 54 -131 47 -161 78
-136 140 24 58 116 75 184 33 l35 -22 16 22 c12 17 13 26 4 36 -33 40 -160 56
-224 29z"/>
</g>
</svg>
